<svg xmlns="http://www.w3.org/2000/svg" xmlns:xlink="http://www.w3.org/1999/xlink" viewBox="0 0 52.5 52.5"><defs><path id="a" d="M9.3 5h37.3v45H9.3z"/></defs><clipPath id="b"><use xlink:href="#a" overflow="visible"/></clipPath><g clip-path="url(#b)"><path d="M41.2 15.4c0 5.6-5.1 12.2-12.9 12.2h-7.5l-.4 2.3L18.6 41H9.3l5.6-36H30c5.1 0 9.1 2.8 10.6 6.8.4 1.1.6 2.3.6 3.6z" fill="#002991"/><path d="M46.5 25.7c-1 6.2-6.4 10.8-12.8 10.8h-5.2L26.4 50h-9.3l1.5-9 1.8-11.2.4-2.3h7.5c7.8 0 12.9-6.6 12.9-12.2 3.8 2 6 6 5.3 10.4z" fill="#60cdff"/><path d="M41.2 15.4c-1.6-.8-3.5-1.4-5.7-1.4H22.9l-2.1 13.5h7.5c7.7 0 12.9-6.6 12.9-12.1z" fill="#008cff"/></g></svg>