<svg xmlns="http://www.w3.org/2000/svg" viewBox="0 0 20 20"><defs><style>.cls-1{fill:#ffb133;}</style></defs><path class="cls-1" d="M15.52,8.68l-2,3L8.4,6.63l2.8-4.2V8.14a.54.54,0,0,0,.53.54Z" /><path class="cls-1" d="M9.62,17.53V11.81a.53.53,0,0,0-.53-.53H5.31L7.13,8.54l5.09,5.09Z" /><path d="M13,14.39,9.53,19.58a.54.54,0,0,1-.44.24l-.15,0a.53.53,0,0,1-.38-.51V12.34H4.31a.53.53,0,0,1-.47-.28.54.54,0,0,1,0-.55L6.36,7.77l.77.77L5.31,11.28H9.09a.53.53,0,0,1,.53.53v5.72l2.6-3.9Z" /><path d="M18.12,18.78a.5.5,0,0,1-.37.16.51.51,0,0,1-.38-.16L.87,2.28a.54.54,0,0,1,0-.76.43.43,0,0,1,.28-.13.52.52,0,0,1,.47.13L7,6.87l.39.38.38.39,5.09,5.09.38.38.38.38L18.12,18A.53.53,0,0,1,18.12,18.78Z" /><path d="M17,8.44l-2.69,4.05-.39-.39-.38-.38,2-3H11.73a.54.54,0,0,1-.53-.54V2.43L8.4,6.63,8,6.24l-.38-.38L11.29.37a.53.53,0,0,1,1,.29v7h4.24a.53.53,0,0,1,.47.28A.54.54,0,0,1,17,8.44Z" /></svg>