<svg xmlns="http://www.w3.org/2000/svg" viewBox="0 0 25.4 25.4"><path d="M6.4 2.3H13l9 8.5c.5.5.8 1.2.8 1.9s-.3 1.4-.8 1.9l-9 8.6H6.4c-.2 0-.3-.1-.3-.3 0-.1 0-.2.1-.2L16.7 13c.1-.1.1-.1.1-.2s0-.2-.1-.2L6.2 2.7c-.2-.1-.1-.4.2-.4zm-3 12.2c-.5-.5-.8-1.2-.8-1.9s.3-1.4.8-1.9l4.8-4.6 3.6 3.4-3.1 2.9c-.1.1-.1.1-.1.2s0 .2.1.2l3.2 2.9-3.6 3.4c-.1.1-4.9-4.6-4.9-4.6zm11.2 8.6H19c.2 0 .4-.3.2-.5l-2.1-1.9-2.5 2.4zm4.6-20.4l-2.1 1.9-2.5-2.4H19c.2 0 .3.1.3.3 0 .1 0 .2-.1.2z" fill-rule="evenodd" clip-rule="evenodd" fill="#ff3d00"/></svg>